# xmcd CD database file
#
# Track frame offsets:
#	150
#	16257
#	27472
#	37405
#	51695
#	61790
#	73310
#	86005
#	97275
#	111032
#	122870
#	135440
#	146960
#	164070
#	180445
#	193860
#	207500
#	223275
#	233675
#	245252
#	258737
#
# Disc length: 3622 seconds
#
# Revision: 2
# Processed by: cddbd v1.5.2PL0 Copyright (c) Steve Scherf et al.
# Submitted via: CDex 1.51
#
DISCID=570e2415
DTITLE=varios - SOLID GOLD COLLECTION
DYEAR=1980
DGENRE=Country
TTITLE0=The Charlie Daniels Band/THE DEVIL WENT DOWN TO GEORGIA 
TTITLE1=Willie Nelson/ON THE ROAD AGAIN
TTITLE2=Poco/ROCKY MOUNTAIN BREAKDOWN
TTITLE3=Johnny Cash/THE REVEREND MR. BLACK
TTITLE4=Lacy J. Dalton/SILVER EAGLE
TTITLE5=Moe Bandy and Joe Stampley/JUST GOOD OL'BOYS
TTITLE6=Charliy McClain/WHEN A LOVE AIN'T RIGHT
TTITLE7=George Jones/THE ONE I LOVED BACK THEN 
TTITLE8=Sweethearts Of The Rodeo/MIDNIGHT GIRL_SUNSET TOWN
TTITLE9=Herb Pedersen/PAPERBACK WRITER
TTITLE10=Johnny Cash/AFTER THE BALL
TTITLE11=Poco/FOOLS GOLD
TTITLE12=Rick Skaggs/COUNTRY BOY
TTITLE13=Asleep At  The Weel/I WANT A NEW DRUG
TTITLE14=Willie Nelson and Leon Russell/HEARTBREAK HOTEL
TTITLE15=Marty Robbins/ALL AROUND COWBOY
TTITLE16=Merle Haggard/REASONS TO QUIT
TTITLE17=Moe Bandy and Joe Stampley/HEY JOE (HEY MOE)
TTITLE18=Bobby Goldsboro/THE SPIRIT OF THE WEST
TTITLE19=Willie Nelson/GOOD HEARTED WOMAN
TTITLE20=Marty Robbins/TIE YOUR DREAMS TO MINE
EXTD=YEAR: 1980
EXTT0=
EXTT1=
EXTT2=
EXTT3=
EXTT4=
EXTT5=
EXTT6=
EXTT7=
EXTT8=
EXTT9=
EXTT10=
EXTT11=
EXTT12=
EXTT13=
EXTT14=
EXTT15=
EXTT16=
EXTT17=
EXTT18=
EXTT19=
EXTT20=
PLAYORDER=
